<svg width="60" height="60" viewBox="0 0 60 60" fill="none" xmlns="http://www.w3.org/2000/svg">
<path d="M54.375 34.6875C54.3748 36.8842 53.7809 39.04 52.6562 40.9269C51.5316 42.8138 49.9178 44.3617 47.9857 45.4069C46.0537 46.4521 43.875 46.9557 41.6802 46.8645C39.4855 46.7733 37.3561 46.0906 35.5174 44.8888L38.0144 52.8781C38.1022 53.1588 38.1226 53.4563 38.0742 53.7464C38.0257 54.0365 37.9097 54.3111 37.7355 54.5481C37.5613 54.7851 37.3338 54.9777 37.0713 55.1105C36.8089 55.2433 36.5189 55.3125 36.2248 55.3125H23.7752C23.4811 55.3125 23.1911 55.2433 22.9287 55.1105C22.6662 54.9777 22.4387 54.7851 22.2645 54.5481C22.0903 54.3111 21.9743 54.0365 21.9259 53.7464C21.8774 53.4563 21.8979 53.1588 21.9857 52.8781L24.4815 44.8927C22.3994 46.2575 19.9474 46.9479 17.4591 46.87C10.9607 46.6859 5.65199 41.2438 5.62511 34.7388C5.61835 33.134 5.9286 31.5437 6.53804 30.0591C7.14749 28.5745 8.04413 27.2249 9.17651 26.0878C10.3089 24.9506 11.6547 24.0483 13.1367 23.4326C14.6187 22.8169 16.2077 22.5 17.8125 22.5C18.1295 22.5 18.4458 22.5122 18.7614 22.5366C17.9836 20.684 17.6758 18.6678 17.8656 16.6674C18.0553 14.6671 18.7367 12.7447 19.849 11.0713C20.9613 9.39795 22.47 8.02553 24.2409 7.07622C26.0118 6.12691 27.99 5.63014 29.9993 5.63014C32.0086 5.63014 33.9868 6.12691 35.7577 7.07622C37.5286 8.02553 39.0374 9.39795 40.1497 11.0713C41.262 12.7447 41.9433 14.6671 42.133 16.6674C42.3228 18.6678 42.015 20.684 41.2372 22.5366C41.6632 22.504 42.0906 22.4932 42.5178 22.5043C45.6976 22.5727 48.723 23.8885 50.9413 26.1677C53.1596 28.447 54.3929 31.507 54.375 34.6875Z" fill="#020202"/>
</svg>
