<svg width="60" height="60" viewBox="0 0 60 60" fill="none" xmlns="http://www.w3.org/2000/svg">
<path d="M54.375 32.8125C54.375 35.0689 53.7934 37.2871 52.6861 39.2532C51.5789 41.2192 49.9835 42.8666 48.054 44.0363C46.1245 45.2059 43.926 45.8584 41.6708 45.9308C39.4156 46.0031 37.1799 45.4928 35.1794 44.4491L37.978 52.8447C38.072 53.1265 38.0976 53.4267 38.0528 53.7204C38.008 54.0141 37.8941 54.2929 37.7204 54.5339C37.5466 54.7749 37.3181 54.9712 37.0537 55.1066C36.7892 55.2419 36.4964 55.3125 36.1993 55.3125H23.8007C23.5036 55.3125 23.2108 55.2419 22.9463 55.1065C22.6818 54.9712 22.4533 54.7749 22.2796 54.5338C22.1059 54.2928 21.9919 54.0139 21.9471 53.7202C21.9023 53.4265 21.928 53.1263 22.022 52.8445L24.8206 44.4491C22.8201 45.4928 20.5844 46.0031 18.3292 45.9308C16.074 45.8584 13.8755 45.2059 11.946 44.0363C10.0165 42.8666 8.42108 41.2192 7.31386 39.2532C6.20664 37.2871 5.62497 35.0689 5.625 32.8125C5.625 20.2563 28.5201 5.45906 29.4946 4.83536C29.6455 4.73874 29.8209 4.68739 30 4.68739C30.1791 4.68739 30.3545 4.73874 30.5054 4.83536C31.4799 5.45906 54.375 20.2563 54.375 32.8125Z" fill="#020202"/>
</svg>
