<svg width="60" height="60" viewBox="0 0 60 60" fill="none" xmlns="http://www.w3.org/2000/svg">
<path d="M55.3125 32.6516L32.6516 55.3125C31.9478 56.0147 30.9942 56.4091 30 56.4091C29.0058 56.4091 28.0522 56.0147 27.3484 55.3125L4.6875 32.6516C3.98528 31.9478 3.59092 30.9942 3.59092 30C3.59092 29.0058 3.98528 28.0522 4.6875 27.3484L27.3484 4.6875C28.0522 3.98528 29.0058 3.59092 30 3.59092C30.9942 3.59092 31.9478 3.98528 32.6516 4.6875L55.3125 27.3484C56.0147 28.0522 56.4091 29.0058 56.4091 30C56.4091 30.9942 56.0147 31.9478 55.3125 32.6516Z" fill="#FA2F2F"/>
</svg>
